<?xml version="1.0" encoding="UTF-8"?>
<svg width="24" height="24" viewBox="0 0 24 24" fill="none" xmlns="http://www.w3.org/2000/svg">
  <path d="M12 2.163c3.204 0 3.584.012 4.85.07 3.252.148 4.771 1.691 4.919 4.919.058 1.265.069 1.645.069 4.849 0 3.205-.012 3.584-.069 4.849-.149 3.225-1.664 4.771-4.919 4.919-1.266.058-1.644.07-4.85.07-3.204 0-3.584-.012-4.849-.07-3.265-.149-4.771-1.699-4.919-4.92-.058-1.265-.07-1.644-.07-4.849 0-3.204.013-3.583.07-4.849.149-3.227 1.664-4.771 4.919-4.919C8.416 2.175 8.79 2.163 12 2.163m0 4.695a4 4 0 1 1 0 8 4 4 0 0 1 0-8m0 12a4 4 0 1 1 0-8 4 4 0 0 1 0 8m0-12a4 4 0 1 0 0 8 4 4 0 0 0 0-8" fill="#E1306C"/>
</svg>
